<?xml version="1.0" encoding="utf-8"?>
<!-- Generator: Adobe Illustrator 27.2.0, SVG Export Plug-In . SVG Version: 6.00 Build 0)  -->
<svg version="1.1" id="Coffee_Bean" xmlns="http://www.w3.org/2000/svg" xmlns:xlink="http://www.w3.org/1999/xlink" x="0px"
	 y="0px" viewBox="0 0 100 100" style="enable-background:new 0 0 100 100;" xml:space="preserve">
<style type="text/css">
	.st0{fill:#5faab1;}
	.st1{fill:#438e96;}
</style>
<g>
	<g>
		<path class="st0" d="M44.1,75.9c-1.4-1.9-2.9-3.7-4.6-5.6c-0.9-0.9-1.7-1.8-2.6-2.7c-0.4-0.5-0.9-0.9-1.4-1.3
			c-0.5-0.5-1-0.9-1.4-1.3c-0.5-0.4-1-0.9-1.5-1.3L31.7,63l-0.8-0.6l-0.8-0.6c-0.3-0.2-0.5-0.4-0.8-0.6c-0.5-0.4-1-0.8-1.6-1.1
			l-0.9-0.6L26,58.9c-0.6-0.4-1.2-0.8-1.8-1.3c-0.6-0.5-1.2-0.9-1.8-1.4c-0.6-0.5-1.1-1-1.6-1.5c-0.5-0.5-1-1.1-1.5-1.6
			c-0.5-0.6-0.9-1.2-1.4-1.7c-0.4-0.6-0.8-1.2-1.2-1.8c-0.2-0.3-0.4-0.6-0.5-0.9c-0.2-0.3-0.4-0.6-0.5-0.9c-1.3-2.5-2.2-5.2-2.6-7.7
			c-0.5-2.5-0.6-5-0.4-7.2c0.1-2.2,0.5-4.2,0.9-5.9c0.4-1.5,0.8-2.8,1.2-3.9c-1,0.3-1.9,0.8-2.8,1.3c-7.4,4.1-11,13-10.8,23.3
			C13.2,64.2,32.1,84.9,48.3,82c-0.2-0.2-0.3-0.5-0.5-0.8C46.7,79.5,45.5,77.7,44.1,75.9z"/>
		<path class="st1" d="M1,47.6c0.2,7.7,2.5,16.2,7.1,24.4c10.8,19.2,29.9,28.8,42.7,21.7c0.4-0.2,0.8-0.5,1.2-0.8
			c0.9-0.6,1.2-1.8,0.7-2.8c0,0,0,0,0,0c-1-2-2.4-4.8-4.4-8C32.1,84.9,13.2,64.2,1,47.6z"/>
		<path class="st1" d="M51.3,81.2c0.6,1.4,1,2.8,1.4,4.1c0.5,1.7,0.8,3.1,1.1,4.4c0.1,0.6,0.2,1.1,0.3,1.5
			c4.6-4.2,7.1-10.6,7.4-18.1C58.3,77.3,54.9,79.9,51.3,81.2z"/>
		<path class="st0" d="M61.5,73c0.4-8.4-1.9-18-7.1-27.2c-8.4-15-21.9-24.1-33.5-24c-2.9,0-5.3,2.3-5.4,5.2c0,0,0,0,0,0.1
			c0,1.7,0,3.5,0.2,5.5c0.2,2,0.6,4.1,1.3,6.2c0.7,2.1,1.6,4.2,2.9,6.3c0.3,0.5,0.7,1,1,1.5c0.4,0.5,0.7,1,1.1,1.4
			c0.4,0.5,0.8,0.9,1.2,1.4c0.4,0.4,0.9,0.9,1.3,1.3c0.5,0.4,0.9,0.8,1.4,1.2c0.5,0.4,1,0.8,1.5,1.2c0.5,0.4,1.1,0.7,1.6,1.1
			l1.8,1.2c0.6,0.4,1.2,0.8,1.8,1.3c0.3,0.2,0.6,0.4,0.9,0.7l0.9,0.7l0.9,0.7c0.3,0.2,0.5,0.5,0.8,0.7c0.5,0.5,1.1,1,1.6,1.5
			c1.1,1,2,2,3,3c0.9,1,1.8,2.1,2.7,3.2c1.7,2.1,3.1,4.3,4.4,6.5c1.2,2.2,2.3,4.3,3.1,6.2c0.2,0.5,0.4,1,0.6,1.4
			C54.9,79.9,58.3,77.3,61.5,73L61.5,73z"/>
	</g>
	<g>
		<path class="st1" d="M65,66.2c0.3,2.4,0.3,4.8,0.2,7.1c-0.2,4-0.9,7.7-2.2,11C73.4,80.9,84,72,91.2,59.2c5-9,7.6-18.3,7.8-26.8
			C89.9,44.7,77.6,59.1,65,66.2L65,66.2z"/>
		<path class="st0" d="M87.2,6.7c-1-0.6-2.1-1-3.1-1.4c0.5,1.2,0.9,2.6,1.3,4.3c0.5,1.9,0.8,4,1,6.5c0.1,2.4,0,5.1-0.5,7.9
			c-0.5,2.8-1.4,5.7-2.9,8.5c-0.2,0.4-0.4,0.7-0.6,1c-0.2,0.3-0.4,0.7-0.6,1c-0.4,0.7-0.9,1.3-1.4,2c-0.5,0.6-1,1.3-1.5,1.9
			c-0.6,0.6-1.1,1.2-1.7,1.8c-0.6,0.6-1.2,1.1-1.8,1.7c-0.6,0.5-1.3,1-1.9,1.6c-0.7,0.5-1.3,0.9-2,1.4l-0.9,0.6l-1,0.6
			c-0.7,0.4-1.2,0.8-1.8,1.3c-0.3,0.2-0.6,0.4-0.9,0.6l-0.9,0.7l-0.9,0.7L64.4,50c-0.6,0.5-1.1,0.9-1.7,1.4c-0.4,0.3-0.8,0.7-1.1,1
			c1.7,4.6,2.9,9.2,3.4,13.7c12.6-7.1,25-21.5,34-33.8C99.3,20.9,95.3,11.2,87.2,6.7L87.2,6.7z"/>
		<path class="st0" d="M83,9.8C83,9.8,83,9.8,83,9.8c-0.1-3.2-2.7-5.8-5.9-5.8C65.4,3.9,52,12.4,42.8,26.4
			c5.7,4.4,10.9,10.4,14.9,17.6c0.5,0.9,0.9,1.7,1.4,2.6c0.5-0.4,0.9-0.8,1.4-1.3c0.3-0.3,0.6-0.5,0.9-0.8l0.9-0.7l0.9-0.8
			c0.3-0.2,0.7-0.5,1-0.7c0.7-0.5,1.3-1,2-1.4l1.9-1.3c0.6-0.4,1.2-0.8,1.7-1.2c0.5-0.4,1.1-0.9,1.7-1.3c0.5-0.5,1-0.9,1.6-1.4
			c0.5-0.5,1-1,1.5-1.4c0.5-0.5,0.9-1,1.4-1.5c0.4-0.5,0.8-1,1.2-1.6c0.4-0.6,0.8-1.1,1.1-1.6c1.4-2.2,2.4-4.6,3.2-6.9
			c0.7-2.3,1.2-4.7,1.4-6.8C83,13.7,83.1,11.7,83,9.8L83,9.8z"/>
	</g>
</g>
</svg>
