<svg id="visual" viewBox="0 0 960 540" width="960" height="540" xmlns="http://www.w3.org/2000/svg" xmlns:xlink="http://www.w3.org/1999/xlink" version="1.1"><rect x="0" y="0" width="960" height="540" fill="#002233"></rect><path d="M0 373L26.7 356.3C53.3 339.7 106.7 306.3 160 302.8C213.3 299.3 266.7 325.7 320 336C373.3 346.3 426.7 340.7 480 316.8C533.3 293 586.7 251 640 257.3C693.3 263.7 746.7 318.3 800 331.2C853.3 344 906.7 315 933.3 300.5L960 286L960 0L933.3 0C906.7 0 853.3 0 800 0C746.7 0 693.3 0 640 0C586.7 0 533.3 0 480 0C426.7 0 373.3 0 320 0C266.7 0 213.3 0 160 0C106.7 0 53.3 0 26.7 0L0 0Z" fill="#0066FF" stroke-linecap="round" stroke-linejoin="miter"></path></svg>
